<svg width="376" height="72" viewBox="0 0 376 72" fill="none" xmlns="http://www.w3.org/2000/svg">
<path d="M374.86 43.1508C372.382 57.1144 358.586 62.1891 348.168 52.5103L346.857 50.6955V70.8092H342.934L342.631 70.5067V20.0209L342.934 19.7184H346.857V25.9525C347.95 24.5662 348.655 23.2892 350.042 22.1381C352.52 20.0881 355.595 18.8195 358.838 18.7018C367.912 18.3574 373.34 23.6841 374.86 32.2958C375.501 36.0243 375.358 40.2554 374.86 43.1508ZM366.711 25.44C364.904 23.9025 362.644 22.7599 360.25 22.533C341.312 20.7351 342.741 57.5093 361.812 53.258C372.39 50.8972 373.869 31.5228 366.711 25.4316V25.44Z" fill="white"/>
<path d="M374.86 43.1508C372.382 57.1144 358.586 62.1891 348.168 52.5103L346.857 50.6955V70.8092H342.934L342.631 70.5067V20.0209L342.934 19.7184H346.857V25.9525C347.95 24.5662 348.655 23.2892 350.042 22.1381C352.52 20.0881 355.595 18.8195 358.838 18.7018C367.912 18.3574 373.34 23.6841 374.86 32.2958C375.501 36.0243 375.358 40.2554 374.86 43.1508ZM366.711 25.44C364.904 23.9025 362.644 22.7599 360.25 22.533C341.312 20.7351 342.741 57.5093 361.812 53.258C372.39 50.8972 373.869 31.5228 366.711 25.4316V25.44Z" fill="url(#paint0_linear_3235_3275)"/>
<path d="M219.866 60.7613C220.639 62.8197 221.37 64.5421 223.243 65.836C226.47 68.0708 233.132 68.054 236.619 66.4325C242.525 63.6851 243.114 56.4344 243.122 50.7045C242.189 51.6287 241.534 52.8469 240.543 53.7039C234.056 59.3078 223.395 58.5433 218.387 51.3682C212.128 42.3868 213.212 22.0295 225.957 19.1729C233.166 17.5598 238.619 19.7862 242.677 25.6926C242.803 25.8775 242.643 26.0623 243.13 25.9531V19.719H247.155V54.8213C246.684 61.4923 244.878 67.3651 238.283 70.104C234.292 71.7592 227.184 71.7592 223.193 70.104C219.202 68.4489 215.791 65.1554 215.732 60.7529H219.858L219.866 60.7613ZM239.182 26.0791C233.031 19.3913 222.681 22.4832 219.958 30.8849C217.598 38.1691 219.236 51.4774 228.335 53.3006C243.08 56.2664 247.02 34.6068 239.182 26.0707V26.0791Z" fill="white"/>
<path d="M219.866 60.7613C220.639 62.8197 221.37 64.5421 223.243 65.836C226.47 68.0708 233.132 68.054 236.619 66.4325C242.525 63.6851 243.114 56.4344 243.122 50.7045C242.189 51.6287 241.534 52.8469 240.543 53.7039C234.056 59.3078 223.395 58.5433 218.387 51.3682C212.128 42.3868 213.212 22.0295 225.957 19.1729C233.166 17.5598 238.619 19.7862 242.677 25.6926C242.803 25.8775 242.643 26.0623 243.13 25.9531V19.719H247.155V54.8213C246.684 61.4923 244.878 67.3651 238.283 70.104C234.292 71.7592 227.184 71.7592 223.193 70.104C219.202 68.4489 215.791 65.1554 215.732 60.7529H219.858L219.866 60.7613ZM239.182 26.0791C233.031 19.3913 222.681 22.4832 219.958 30.8849C217.598 38.1691 219.236 51.4774 228.335 53.3006C243.08 56.2664 247.02 34.6068 239.182 26.0707V26.0791Z" fill="url(#paint1_linear_3235_3275)"/>
<path d="M277.846 54.4515C265.815 45.6045 269.024 18.1058 288.155 18.7107C307.285 19.3156 308.596 52.2251 292.003 56.7704C287.449 58.0138 281.694 57.2745 277.846 54.4515ZM295.38 25.6673C291.163 21.3488 283.223 21.3908 279.19 25.9193C271.444 34.6235 274.947 56.7368 290.306 53.2669C300.682 50.9228 301.791 32.2374 295.38 25.6589V25.6673Z" fill="white"/>
<path d="M277.846 54.4515C265.815 45.6045 269.024 18.1058 288.155 18.7107C307.285 19.3156 308.596 52.2251 292.003 56.7704C287.449 58.0138 281.694 57.2745 277.846 54.4515ZM295.38 25.6673C291.163 21.3488 283.223 21.3908 279.19 25.9193C271.444 34.6235 274.947 56.7368 290.306 53.2669C300.682 50.9228 301.791 32.2374 295.38 25.6589V25.6673Z" fill="url(#paint2_linear_3235_3275)"/>
<path d="M311.807 19.7281V45.1768C311.807 48.798 314.21 52.4695 317.797 53.2761C326.821 55.3177 331.274 48.3359 331.744 40.3459C332.147 33.6077 331.45 26.4999 331.744 19.7281H335.769V56.3427H331.744V51.5117L327.779 55.0993C320.141 60.4007 307.774 56.4687 307.774 46.1851V19.7281H311.807Z" fill="white"/>
<path d="M311.807 19.7281V45.1768C311.807 48.798 314.21 52.4695 317.797 53.2761C326.821 55.3177 331.274 48.3359 331.744 40.3459C332.147 33.6077 331.45 26.4999 331.744 19.7281H335.769V56.3427H331.744V51.5117L327.779 55.0993C320.141 60.4007 307.774 56.4687 307.774 46.1851V19.7281H311.807Z" fill="url(#paint3_linear_3235_3275)"/>
<path d="M269.915 18.719V23.1467C267.604 23.3735 265.487 23.6004 263.487 24.869C259.303 27.5323 258.463 32.9346 258.228 37.522C257.909 43.6972 258.48 50.1413 258.228 56.3418H254.203V19.7272H258.228V26.5662L260.563 22.5585C262.798 19.5843 266.302 18.7106 269.915 18.719Z" fill="white"/>
<path d="M269.915 18.719V23.1467C267.604 23.3735 265.487 23.6004 263.487 24.869C259.303 27.5323 258.463 32.9346 258.228 37.522C257.909 43.6972 258.48 50.1413 258.228 56.3418H254.203V19.7272H258.228V26.5662L260.563 22.5585C262.798 19.5843 266.302 18.7106 269.915 18.719Z" fill="url(#paint4_linear_3235_3275)"/>
<path d="M57.5941 57.8279C53.6033 57.8279 51.8473 53.3078 51.8473 46.788V39.0081C51.8473 35.4121 51.8473 31.8162 51.8473 28.2203C51.8473 27.5481 51.7129 26.8256 52.1834 26.3467C52.6455 25.8762 53.2336 25.4897 53.7797 25.1536C54.8803 24.4731 56.1154 23.9942 57.4008 23.9942C62.946 23.9942 64.912 31.3793 64.912 41.0581C64.912 49.7286 63.0216 57.8279 57.6025 57.8279M61.7949 19.5413C57.5605 19.5413 54.2586 22.087 51.8977 25.3553V19.5077L38.8415 20.5411V20.9696C41.1435 21.8266 42.429 23.7002 42.429 28.2875V28.3043C42.4038 29.0688 42.3786 29.741 42.3786 30.0014V63.4906C42.3786 68.0779 42.1769 70.5144 39.4044 70.5144V70.9429H54.8299V70.5144C52.0574 70.5144 51.8557 68.0779 51.8557 63.4906V57.6682C53.4772 58.3824 55.3088 58.8193 57.3336 58.8193C67.7517 58.8193 74.9268 50.72 74.9268 38.0335C74.9268 26.7752 69.18 19.5413 61.8033 19.5413" fill="white"/>
<path d="M57.5941 57.8279C53.6033 57.8279 51.8473 53.3078 51.8473 46.788V39.0081C51.8473 35.4121 51.8473 31.8162 51.8473 28.2203C51.8473 27.5481 51.7129 26.8256 52.1834 26.3467C52.6455 25.8762 53.2336 25.4897 53.7797 25.1536C54.8803 24.4731 56.1154 23.9942 57.4008 23.9942C62.946 23.9942 64.912 31.3793 64.912 41.0581C64.912 49.7286 63.0216 57.8279 57.6025 57.8279M61.7949 19.5413C57.5605 19.5413 54.2586 22.087 51.8977 25.3553V19.5077L38.8415 20.5411V20.9696C41.1435 21.8266 42.429 23.7002 42.429 28.2875V28.3043C42.4038 29.0688 42.3786 29.741 42.3786 30.0014V63.4906C42.3786 68.0779 42.1769 70.5144 39.4044 70.5144V70.9429H54.8299V70.5144C52.0574 70.5144 51.8557 68.0779 51.8557 63.4906V57.6682C53.4772 58.3824 55.3088 58.8193 57.3336 58.8193C67.7517 58.8193 74.9268 50.72 74.9268 38.0335C74.9268 26.7752 69.18 19.5413 61.8033 19.5413" fill="url(#paint5_linear_3235_3275)"/>
<path d="M34.1613 48.3602V19.5424L21.1051 20.5422V20.9706C23.4072 21.8276 24.6926 23.55 24.6926 28.1373V51.074C22.6594 52.435 20.1557 53.2248 18.2653 53.2248C13.9384 53.2248 13.0563 49.8557 13.0563 44.9071V19.534L0 20.5338V20.9622C2.30207 21.8192 3.58753 23.5416 3.58753 28.1289V47.478C3.58753 54.6447 6.56174 58.6607 12.4513 58.6607C17.0471 58.6607 21.3823 55.3588 24.7598 51.7797L26.1125 58.6607L37.6144 56.2242V55.7957C35.3124 54.9387 34.1613 52.9307 34.1613 48.3434" fill="white"/>
<path d="M34.1613 48.3602V19.5424L21.1051 20.5422V20.9706C23.4072 21.8276 24.6926 23.55 24.6926 28.1373V51.074C22.6594 52.435 20.1557 53.2248 18.2653 53.2248C13.9384 53.2248 13.0563 49.8557 13.0563 44.9071V19.534L0 20.5338V20.9622C2.30207 21.8192 3.58753 23.5416 3.58753 28.1289V47.478C3.58753 54.6447 6.56174 58.6607 12.4513 58.6607C17.0471 58.6607 21.3823 55.3588 24.7598 51.7797L26.1125 58.6607L37.6144 56.2242V55.7957C35.3124 54.9387 34.1613 52.9307 34.1613 48.3434" fill="url(#paint6_linear_3235_3275)"/>
<path d="M187.341 58.0461C183.35 58.0461 181.595 53.526 181.595 47.0063V39.2263C181.595 35.6304 181.595 32.0344 181.595 28.4385C181.595 27.7664 181.46 27.0438 181.931 26.5649C182.393 26.0944 182.981 25.708 183.527 25.3719C184.628 24.6914 185.863 24.2125 187.148 24.2125C192.693 24.2125 194.659 31.5976 194.659 41.2763C194.659 49.9469 192.769 58.0461 187.35 58.0461M191.542 19.7596C187.308 19.7596 184.006 22.3053 181.645 25.5735V19.726L168.589 20.7594V21.1878C170.891 22.0448 172.176 23.9184 172.176 28.5057V28.5225C172.151 29.2871 172.126 29.9592 172.126 30.2197V63.7089C172.126 68.2962 171.924 70.7327 169.152 70.7327V71.1612H184.577V70.7327C181.805 70.7327 181.603 68.2962 181.603 63.7089V57.8865C183.224 58.6006 185.056 59.0375 187.081 59.0375C197.499 59.0375 204.674 50.9383 204.674 38.2517C204.674 26.9934 198.927 19.7596 191.551 19.7596" fill="white"/>
<path d="M187.341 58.0461C183.35 58.0461 181.595 53.526 181.595 47.0063V39.2263C181.595 35.6304 181.595 32.0344 181.595 28.4385C181.595 27.7664 181.46 27.0438 181.931 26.5649C182.393 26.0944 182.981 25.708 183.527 25.3719C184.628 24.6914 185.863 24.2125 187.148 24.2125C192.693 24.2125 194.659 31.5976 194.659 41.2763C194.659 49.9469 192.769 58.0461 187.35 58.0461M191.542 19.7596C187.308 19.7596 184.006 22.3053 181.645 25.5735V19.726L168.589 20.7594V21.1878C170.891 22.0448 172.176 23.9184 172.176 28.5057V28.5225C172.151 29.2871 172.126 29.9592 172.126 30.2197V63.7089C172.126 68.2962 171.924 70.7327 169.152 70.7327V71.1612H184.577V70.7327C181.805 70.7327 181.603 68.2962 181.603 63.7089V57.8865C183.224 58.6006 185.056 59.0375 187.081 59.0375C197.499 59.0375 204.674 50.9383 204.674 38.2517C204.674 26.9934 198.927 19.7596 191.551 19.7596" fill="url(#paint7_linear_3235_3275)"/>
<path d="M163.909 48.5784V19.7606L150.852 20.7604V21.1889C153.154 22.0459 154.44 23.7682 154.44 28.3556V51.2922C152.407 52.6533 149.903 53.443 148.013 53.443C143.686 53.443 142.803 50.074 142.803 45.1253V19.7522L129.747 20.752V21.1805C132.049 22.0375 133.335 23.7598 133.335 28.3471V47.6963C133.335 54.8629 136.309 58.8789 142.199 58.8789C146.794 58.8789 151.13 55.5771 154.507 51.9979L155.86 58.8789L167.362 56.4424V56.014C165.06 55.157 163.909 53.149 163.909 48.5616" fill="white"/>
<path d="M163.909 48.5784V19.7606L150.852 20.7604V21.1889C153.154 22.0459 154.44 23.7682 154.44 28.3556V51.2922C152.407 52.6533 149.903 53.443 148.013 53.443C143.686 53.443 142.803 50.074 142.803 45.1253V19.7522L129.747 20.752V21.1805C132.049 22.0375 133.335 23.7598 133.335 28.3471V47.6963C133.335 54.8629 136.309 58.8789 142.199 58.8789C146.794 58.8789 151.13 55.5771 154.507 51.9979L155.86 58.8789L167.362 56.4424V56.014C165.06 55.157 163.909 53.149 163.909 48.5616" fill="url(#paint8_linear_3235_3275)"/>
<path d="M113.088 34.8663V35.2444C114.247 35.6812 113.037 36.8407 112.416 37.2944C112.256 37.412 91.4869 52.5855 90.8904 53.0308C90.5207 53.2996 90.151 53.5685 89.7813 53.8373C89.1764 54.2826 88.3362 54.2826 87.6221 54.1734C86.908 54.0642 86.2106 53.7869 85.6057 53.35C84.8075 52.7703 84.2026 51.9049 84.0346 50.8883C83.7573 49.166 84.6311 47.4688 85.6813 46.1246C87.1852 44.1838 89.0588 42.6547 90.9744 41.1592L96.3515 37.2524L88.5295 26.7082L88.2354 26.9183C88.9075 29.2875 88.4371 31.2283 85.32 33.4968L85.2276 33.5724C83.9925 34.5134 82.6903 35.5636 81.5393 36.7231C80.3126 37.9665 79.254 39.336 78.6575 40.8399C77.3468 44.1334 77.6745 48.1494 79.6237 51.09C81.8585 54.4674 86.093 56.1982 89.899 55.3244C89.9158 55.274 91.302 58.7859 91.302 58.7859H103.787V58.2902C103.787 58.2902 101.863 56.8451 104.089 54.6187C104.451 54.3498 104.82 54.081 105.182 53.8121C106.123 53.1232 122.271 41.2264 123.304 40.4618C125.346 38.9579 127.228 37.0087 129.496 35.8913C129.647 35.8157 129.807 35.7401 129.975 35.6896V35.0679L113.096 34.8579L113.088 34.8663Z" fill="white"/>
<path d="M113.088 34.8663V35.2444C114.247 35.6812 113.037 36.8407 112.416 37.2944C112.256 37.412 91.4869 52.5855 90.8904 53.0308C90.5207 53.2996 90.151 53.5685 89.7813 53.8373C89.1764 54.2826 88.3362 54.2826 87.6221 54.1734C86.908 54.0642 86.2106 53.7869 85.6057 53.35C84.8075 52.7703 84.2026 51.9049 84.0346 50.8883C83.7573 49.166 84.6311 47.4688 85.6813 46.1246C87.1852 44.1838 89.0588 42.6547 90.9744 41.1592L96.3515 37.2524L88.5295 26.7082L88.2354 26.9183C88.9075 29.2875 88.4371 31.2283 85.32 33.4968L85.2276 33.5724C83.9925 34.5134 82.6903 35.5636 81.5393 36.7231C80.3126 37.9665 79.254 39.336 78.6575 40.8399C77.3468 44.1334 77.6745 48.1494 79.6237 51.09C81.8585 54.4674 86.093 56.1982 89.899 55.3244C89.9158 55.274 91.302 58.7859 91.302 58.7859H103.787V58.2902C103.787 58.2902 101.863 56.8451 104.089 54.6187C104.451 54.3498 104.82 54.081 105.182 53.8121C106.123 53.1232 122.271 41.2264 123.304 40.4618C125.346 38.9579 127.228 37.0087 129.496 35.8913C129.647 35.8157 129.807 35.7401 129.975 35.6896V35.0679L113.096 34.8579L113.088 34.8663Z" fill="url(#paint9_linear_3235_3275)"/>
<path d="M125 56.4255L118.178 47.1332L110.364 52.9136L113.876 57.8286L114.632 58.7864H128.041V58.3495C128.041 58.3495 126.109 58.1815 125 56.4255Z" fill="white"/>
<path d="M125 56.4255L118.178 47.1332L110.364 52.9136L113.876 57.8286L114.632 58.7864H128.041V58.3495C128.041 58.3495 126.109 58.1815 125 56.4255Z" fill="url(#paint10_linear_3235_3275)"/>
<path d="M107.617 26.1623C106.037 26.8597 104.113 26.2883 102.769 25.2969C101.752 24.5576 94.552 14.2235 92.3423 11.014V10.9972C91.3677 9.66137 91.1073 8.03984 91.9642 6.52753C92.6364 5.20006 93.4682 4.57834 94.8124 4.3683C99.5174 3.52813 103.752 9.8462 105.441 12.4255C107.121 15.1309 108.944 18.0379 109.322 21.3397C109.583 23.457 109.079 25.423 107.617 26.1707M113.044 9.36731C110.918 5.20006 107.499 1.64614 103.088 0.385888C94.636 -2.0338 87.2929 7.39291 87.1081 15.6266C87.0492 18.2731 87.9398 20.634 89.2337 22.9025C90.2419 24.6752 91.3677 26.3808 92.5356 28.0527C94.4763 30.8169 102.349 41.7055 102.349 41.7055L110.137 35.9755C110.137 35.9755 105.583 29.8171 104.987 28.9517C106.936 28.2207 108.667 26.9773 110.171 25.4902C114.33 21.3985 115.8 14.7612 113.044 9.36731Z" fill="white"/>
<path d="M107.617 26.1623C106.037 26.8597 104.113 26.2883 102.769 25.2969C101.752 24.5576 94.552 14.2235 92.3423 11.014V10.9972C91.3677 9.66137 91.1073 8.03984 91.9642 6.52753C92.6364 5.20006 93.4682 4.57834 94.8124 4.3683C99.5174 3.52813 103.752 9.8462 105.441 12.4255C107.121 15.1309 108.944 18.0379 109.322 21.3397C109.583 23.457 109.079 25.423 107.617 26.1707M113.044 9.36731C110.918 5.20006 107.499 1.64614 103.088 0.385888C94.636 -2.0338 87.2929 7.39291 87.1081 15.6266C87.0492 18.2731 87.9398 20.634 89.2337 22.9025C90.2419 24.6752 91.3677 26.3808 92.5356 28.0527C94.4763 30.8169 102.349 41.7055 102.349 41.7055L110.137 35.9755C110.137 35.9755 105.583 29.8171 104.987 28.9517C106.936 28.2207 108.667 26.9773 110.171 25.4902C114.33 21.3985 115.8 14.7612 113.044 9.36731Z" fill="url(#paint11_linear_3235_3275)"/>
<defs>
<linearGradient id="paint0_linear_3235_3275" x1="-291.544" y1="-20.787" x2="48.1589" y2="-347.094" gradientUnits="userSpaceOnUse">
<stop stop-color="#FFA843"/>
<stop offset="1" stop-color="#FF7D2E"/>
</linearGradient>
<linearGradient id="paint1_linear_3235_3275" x1="-291.544" y1="-20.787" x2="48.1589" y2="-347.094" gradientUnits="userSpaceOnUse">
<stop stop-color="#FFA843"/>
<stop offset="1" stop-color="#FF7D2E"/>
</linearGradient>
<linearGradient id="paint2_linear_3235_3275" x1="-291.544" y1="-20.787" x2="48.1589" y2="-347.094" gradientUnits="userSpaceOnUse">
<stop stop-color="#FFA843"/>
<stop offset="1" stop-color="#FF7D2E"/>
</linearGradient>
<linearGradient id="paint3_linear_3235_3275" x1="-291.544" y1="-20.787" x2="48.1589" y2="-347.094" gradientUnits="userSpaceOnUse">
<stop stop-color="#FFA843"/>
<stop offset="1" stop-color="#FF7D2E"/>
</linearGradient>
<linearGradient id="paint4_linear_3235_3275" x1="-291.544" y1="-20.787" x2="48.1589" y2="-347.094" gradientUnits="userSpaceOnUse">
<stop stop-color="#FFA843"/>
<stop offset="1" stop-color="#FF7D2E"/>
</linearGradient>
<linearGradient id="paint5_linear_3235_3275" x1="-291.544" y1="-20.787" x2="48.1589" y2="-347.094" gradientUnits="userSpaceOnUse">
<stop stop-color="#FFA843"/>
<stop offset="1" stop-color="#FF7D2E"/>
</linearGradient>
<linearGradient id="paint6_linear_3235_3275" x1="-291.544" y1="-20.787" x2="48.1589" y2="-347.094" gradientUnits="userSpaceOnUse">
<stop stop-color="#FFA843"/>
<stop offset="1" stop-color="#FF7D2E"/>
</linearGradient>
<linearGradient id="paint7_linear_3235_3275" x1="-291.544" y1="-20.787" x2="48.1589" y2="-347.094" gradientUnits="userSpaceOnUse">
<stop stop-color="#FFA843"/>
<stop offset="1" stop-color="#FF7D2E"/>
</linearGradient>
<linearGradient id="paint8_linear_3235_3275" x1="-291.544" y1="-20.787" x2="48.1589" y2="-347.094" gradientUnits="userSpaceOnUse">
<stop stop-color="#FFA843"/>
<stop offset="1" stop-color="#FF7D2E"/>
</linearGradient>
<linearGradient id="paint9_linear_3235_3275" x1="-291.544" y1="-20.787" x2="48.1589" y2="-347.094" gradientUnits="userSpaceOnUse">
<stop stop-color="#FFA843"/>
<stop offset="1" stop-color="#FF7D2E"/>
</linearGradient>
<linearGradient id="paint10_linear_3235_3275" x1="-291.544" y1="-20.787" x2="48.1589" y2="-347.094" gradientUnits="userSpaceOnUse">
<stop stop-color="#FFA843"/>
<stop offset="1" stop-color="#FF7D2E"/>
</linearGradient>
<linearGradient id="paint11_linear_3235_3275" x1="-291.544" y1="-20.787" x2="48.1589" y2="-347.094" gradientUnits="userSpaceOnUse">
<stop stop-color="#FFA843"/>
<stop offset="1" stop-color="#FF7D2E"/>
</linearGradient>
</defs>
</svg>
