<svg xmlns="http://www.w3.org/2000/svg" width="100%" viewBox="0 0 115 40" fill="none" class="nav-logo"><path d="M32.3643 32.4986C30.1223 32.4986 29.1348 29.9587 29.1348 26.2937V21.9193C29.1348 19.8985 29.1298 17.8776 29.1348 15.8568C29.1348 15.4788 29.0605 15.0718 29.3225 14.806C29.5807 14.5439 29.9107 14.3247 30.218 14.1332C30.8352 13.749 31.5292 13.4831 32.2522 13.4831C35.3696 13.4831 36.4717 17.6332 36.4717 23.0709C36.4717 27.9454 35.4074 32.4974 32.3656 32.4974M34.7234 10.9848C32.3454 10.9848 30.4913 12.4147 29.1612 14.2517V10.9646L21.8256 11.5467V11.7886C23.1179 12.2711 23.8409 13.3231 23.8409 15.9021V15.9122C23.827 16.3405 23.8144 16.7198 23.8144 16.8659V35.6887C23.8144 38.2664 23.6998 39.6359 22.1417 39.6359V39.8778H30.8087V39.6359C29.2507 39.6359 29.1361 38.2664 29.1361 35.6887V32.4167C30.0492 32.8199 31.0745 33.0618 32.2157 33.0618C38.0701 33.0618 42.0994 28.5098 42.0994 21.3788C42.0994 15.0529 38.8686 10.9848 34.7247 10.9848" fill="black"></path><path d="M19.1969 27.1781H19.1956V10.9848L11.86 11.5479V11.7898C13.1523 12.2724 13.8753 13.24 13.8753 15.819V28.7114C12.7341 29.4761 11.3272 29.9209 10.2641 29.9209C7.83192 29.9209 7.33691 28.0285 7.33691 25.248V10.986L0 11.5492V11.7911C1.2923 12.2736 2.01529 13.2412 2.01529 15.8202V26.6968C2.01529 30.726 3.68798 32.9812 6.99432 32.9812C9.57766 32.9812 12.0124 31.1279 13.9118 29.1133L14.6726 32.9812L21.1341 31.6117V31.3698C19.8418 30.8872 19.1956 29.7596 19.1956 27.1794" fill="black"></path><path d="M105.265 32.6208C103.023 32.6208 102.035 30.0809 102.035 26.4159V22.0415C102.035 20.0207 102.03 17.9998 102.035 15.979C102.035 15.601 101.961 15.194 102.223 14.9282C102.481 14.6662 102.811 14.4469 103.119 14.2554C103.736 13.8712 104.43 13.6053 105.153 13.6053C108.27 13.6053 109.372 17.7554 109.372 23.1931C109.372 28.0676 108.308 32.6196 105.266 32.6196M107.624 11.107C105.245 11.107 103.392 12.5369 102.062 14.3739V11.0868L94.7262 11.6689V11.9108C96.0185 12.3933 96.7415 13.4453 96.7415 16.0243V16.0344C96.7276 16.4628 96.715 16.842 96.715 16.9881V35.8109C96.715 38.3886 96.6004 39.7581 95.0423 39.7581V40H103.709V39.7581C102.151 39.7581 102.037 38.3886 102.037 35.8109V32.5389C102.95 32.9421 103.975 33.184 105.116 33.184C110.969 33.184 115 28.632 115 21.5011C115 15.1752 111.769 11.107 107.625 11.107" fill="black"></path><path d="M92.0975 27.3016H92.0962V11.107L84.7606 11.6714V11.9133C86.0529 12.3958 86.7759 13.3634 86.7759 15.9424V28.8349C85.6347 29.5996 84.229 30.0444 83.1647 30.0444C80.7325 30.0444 80.2375 28.152 80.2375 25.3714V11.1095L72.9018 11.6739V11.9158C74.1942 12.3984 74.9171 13.366 74.9171 15.9449V26.8216C74.9171 30.8507 76.5898 33.1059 79.8962 33.1059C82.4795 33.1059 84.9142 31.2526 86.8136 29.238L87.5744 33.1059L94.0359 31.7364V31.4945C92.7436 31.012 92.0975 29.8844 92.0975 27.3041" fill="black"></path><path d="M63.5446 19.5961V19.8103C64.1933 20.0547 63.5182 20.7048 63.1693 20.9606C63.0811 21.0248 51.4113 29.5568 51.0737 29.8037C50.8659 29.9549 50.6593 30.1061 50.4528 30.2585C50.114 30.5067 49.6391 30.5093 49.2411 30.45C48.838 30.3896 48.4463 30.2321 48.11 29.9877C47.6641 29.6639 47.3228 29.1763 47.2296 28.6056C47.0709 27.638 47.5671 26.6855 48.1553 25.9283C49.0005 24.8385 50.051 23.9755 51.1279 23.1376L54.1508 20.9429L49.755 15.0164L49.59 15.1361C49.9691 16.4678 49.7059 17.5576 47.95 18.8326L47.8984 18.8767C47.2044 19.4071 46.4726 19.9942 45.8264 20.6468C45.1349 21.3448 44.5429 22.1146 44.2054 22.9625C43.4685 24.8133 43.6537 27.071 44.747 28.7227C46.004 30.6214 48.3821 31.5953 50.5183 31.1027C50.5271 31.0737 51.308 33.0479 51.308 33.0479H58.32V32.767C58.32 32.767 57.2367 31.9531 58.49 30.702C58.6941 30.5521 58.8981 30.4009 59.1022 30.251C59.6312 29.8617 68.7038 23.1767 69.2831 22.7496C70.4281 21.9055 71.4874 20.8081 72.762 20.1807C72.8489 20.1379 72.9384 20.0975 73.0291 20.0648V19.7158L63.5471 19.5999L63.5446 19.5961Z" fill="black"></path><path d="M70.2366 31.7112L66.4038 26.489L62.0142 29.7369L63.9867 32.4974L64.4112 33.0366H71.9458V32.7909C71.9458 32.7909 70.8614 32.6977 70.2366 31.7099" fill="black"></path><path d="M60.47 14.7014C59.5808 15.0945 58.5039 14.7732 57.7469 14.2164C57.175 13.7981 53.1306 7.99505 51.8862 6.18837L51.8799 6.17955C51.3395 5.42739 51.1909 4.51901 51.6758 3.66607C52.0512 2.92021 52.5185 2.57248 53.278 2.4528C55.9218 1.98286 58.3011 5.52944 59.2508 6.97958C60.1967 8.49774 61.2207 10.1356 61.4311 11.9902C61.5784 13.1782 61.295 14.2844 60.4725 14.704M63.5207 5.26361C62.3254 2.92273 60.4033 0.924551 57.9282 0.216493C53.1797 -1.14167 49.0522 4.15238 48.9501 8.78122C48.9174 10.2704 49.4199 11.5971 50.1429 12.8708C50.7085 13.8661 51.3395 14.8249 51.9995 15.7648C53.0903 17.3207 57.5126 23.4375 57.5126 23.4375L61.887 20.216C61.887 20.216 59.3289 16.7538 58.9938 16.27C60.0909 15.8605 61.062 15.1575 61.9084 14.326C64.2437 12.0279 65.0699 8.29616 63.5219 5.26361" fill="black"></path></svg>